<mxfile host="Electron" agent="Mozilla/5.0 (Macintosh; Intel Mac OS X 10_15_7) AppleWebKit/537.36 (KHTML, like Gecko) draw.io/26.0.4 Chrome/128.0.6613.186 Electron/32.2.5 Safari/537.36" version="26.0.4">
  <diagram name="Page-1" id="G-5bLHL6qB_5fWoSHao3">
    <mxGraphModel dx="683" dy="475" grid="1" gridSize="10" guides="1" tooltips="1" connect="1" arrows="1" fold="1" page="1" pageScale="1" pageWidth="850" pageHeight="1100" math="0" shadow="0">
      <root>
        <mxCell id="0" />
        <mxCell id="1" parent="0" />
        <mxCell id="qeFZkYbgccAt_2fWhlSk-18" style="edgeStyle=orthogonalEdgeStyle;rounded=0;orthogonalLoop=1;jettySize=auto;html=1;" edge="1" parent="1" source="qeFZkYbgccAt_2fWhlSk-1" target="qeFZkYbgccAt_2fWhlSk-17">
          <mxGeometry relative="1" as="geometry" />
        </mxCell>
        <mxCell id="qeFZkYbgccAt_2fWhlSk-25" value="b" style="edgeLabel;html=1;align=center;verticalAlign=middle;resizable=0;points=[];" vertex="1" connectable="0" parent="qeFZkYbgccAt_2fWhlSk-18">
          <mxGeometry x="0.2054" relative="1" as="geometry">
            <mxPoint as="offset" />
          </mxGeometry>
        </mxCell>
        <mxCell id="qeFZkYbgccAt_2fWhlSk-20" style="edgeStyle=orthogonalEdgeStyle;rounded=0;orthogonalLoop=1;jettySize=auto;html=1;" edge="1" parent="1" source="qeFZkYbgccAt_2fWhlSk-1" target="qeFZkYbgccAt_2fWhlSk-19">
          <mxGeometry relative="1" as="geometry" />
        </mxCell>
        <mxCell id="qeFZkYbgccAt_2fWhlSk-24" value="a" style="edgeLabel;html=1;align=center;verticalAlign=middle;resizable=0;points=[];" vertex="1" connectable="0" parent="qeFZkYbgccAt_2fWhlSk-20">
          <mxGeometry x="0.1815" relative="1" as="geometry">
            <mxPoint as="offset" />
          </mxGeometry>
        </mxCell>
        <mxCell id="qeFZkYbgccAt_2fWhlSk-50" style="edgeStyle=orthogonalEdgeStyle;rounded=0;orthogonalLoop=1;jettySize=auto;html=1;entryX=0.5;entryY=1;entryDx=0;entryDy=0;" edge="1" parent="1" source="qeFZkYbgccAt_2fWhlSk-1" target="qeFZkYbgccAt_2fWhlSk-47">
          <mxGeometry relative="1" as="geometry" />
        </mxCell>
        <mxCell id="qeFZkYbgccAt_2fWhlSk-51" value="c" style="edgeLabel;html=1;align=center;verticalAlign=middle;resizable=0;points=[];" vertex="1" connectable="0" parent="qeFZkYbgccAt_2fWhlSk-50">
          <mxGeometry x="0.0357" relative="1" as="geometry">
            <mxPoint as="offset" />
          </mxGeometry>
        </mxCell>
        <mxCell id="qeFZkYbgccAt_2fWhlSk-1" value="q0" style="ellipse;whiteSpace=wrap;html=1;aspect=fixed;" vertex="1" parent="1">
          <mxGeometry x="200" y="360" width="80" height="80" as="geometry" />
        </mxCell>
        <mxCell id="qeFZkYbgccAt_2fWhlSk-26" style="edgeStyle=orthogonalEdgeStyle;rounded=0;orthogonalLoop=1;jettySize=auto;html=1;" edge="1" parent="1" source="qeFZkYbgccAt_2fWhlSk-17" target="qeFZkYbgccAt_2fWhlSk-21">
          <mxGeometry relative="1" as="geometry" />
        </mxCell>
        <mxCell id="qeFZkYbgccAt_2fWhlSk-27" value="a" style="edgeLabel;html=1;align=center;verticalAlign=middle;resizable=0;points=[];" vertex="1" connectable="0" parent="qeFZkYbgccAt_2fWhlSk-26">
          <mxGeometry x="0.0476" y="1" relative="1" as="geometry">
            <mxPoint as="offset" />
          </mxGeometry>
        </mxCell>
        <mxCell id="qeFZkYbgccAt_2fWhlSk-41" style="edgeStyle=orthogonalEdgeStyle;rounded=0;orthogonalLoop=1;jettySize=auto;html=1;exitX=0.244;exitY=0.943;exitDx=0;exitDy=0;exitPerimeter=0;" edge="1" parent="1" source="qeFZkYbgccAt_2fWhlSk-17">
          <mxGeometry relative="1" as="geometry">
            <mxPoint x="420" y="370" as="targetPoint" />
          </mxGeometry>
        </mxCell>
        <mxCell id="qeFZkYbgccAt_2fWhlSk-42" value="b,c" style="edgeLabel;html=1;align=center;verticalAlign=middle;resizable=0;points=[];" vertex="1" connectable="0" parent="qeFZkYbgccAt_2fWhlSk-41">
          <mxGeometry x="0.1918" y="-2" relative="1" as="geometry">
            <mxPoint as="offset" />
          </mxGeometry>
        </mxCell>
        <mxCell id="qeFZkYbgccAt_2fWhlSk-17" value="q1" style="ellipse;whiteSpace=wrap;html=1;aspect=fixed;" vertex="1" parent="1">
          <mxGeometry x="360" y="280" width="80" height="80" as="geometry" />
        </mxCell>
        <mxCell id="qeFZkYbgccAt_2fWhlSk-23" style="edgeStyle=orthogonalEdgeStyle;rounded=0;orthogonalLoop=1;jettySize=auto;html=1;entryX=0;entryY=0.5;entryDx=0;entryDy=0;" edge="1" parent="1" source="qeFZkYbgccAt_2fWhlSk-19" target="qeFZkYbgccAt_2fWhlSk-22">
          <mxGeometry relative="1" as="geometry" />
        </mxCell>
        <mxCell id="qeFZkYbgccAt_2fWhlSk-28" value="b" style="edgeLabel;html=1;align=center;verticalAlign=middle;resizable=0;points=[];" vertex="1" connectable="0" parent="qeFZkYbgccAt_2fWhlSk-23">
          <mxGeometry x="-0.0833" y="-1" relative="1" as="geometry">
            <mxPoint as="offset" />
          </mxGeometry>
        </mxCell>
        <mxCell id="qeFZkYbgccAt_2fWhlSk-33" style="edgeStyle=orthogonalEdgeStyle;rounded=0;orthogonalLoop=1;jettySize=auto;html=1;exitX=0.28;exitY=0.057;exitDx=0;exitDy=0;exitPerimeter=0;" edge="1" parent="1" source="qeFZkYbgccAt_2fWhlSk-19">
          <mxGeometry relative="1" as="geometry">
            <mxPoint x="420" y="430" as="targetPoint" />
          </mxGeometry>
        </mxCell>
        <mxCell id="qeFZkYbgccAt_2fWhlSk-36" value="a,c" style="edgeLabel;html=1;align=center;verticalAlign=middle;resizable=0;points=[];" vertex="1" connectable="0" parent="qeFZkYbgccAt_2fWhlSk-33">
          <mxGeometry x="0.1077" y="1" relative="1" as="geometry">
            <mxPoint as="offset" />
          </mxGeometry>
        </mxCell>
        <mxCell id="qeFZkYbgccAt_2fWhlSk-19" value="q2" style="ellipse;whiteSpace=wrap;html=1;aspect=fixed;" vertex="1" parent="1">
          <mxGeometry x="360" y="440" width="80" height="80" as="geometry" />
        </mxCell>
        <mxCell id="qeFZkYbgccAt_2fWhlSk-30" style="edgeStyle=orthogonalEdgeStyle;rounded=0;orthogonalLoop=1;jettySize=auto;html=1;entryX=0.5;entryY=1;entryDx=0;entryDy=0;" edge="1" parent="1" source="qeFZkYbgccAt_2fWhlSk-22" target="qeFZkYbgccAt_2fWhlSk-19">
          <mxGeometry relative="1" as="geometry">
            <mxPoint x="420" y="540" as="targetPoint" />
            <Array as="points">
              <mxPoint x="560" y="540" />
              <mxPoint x="400" y="540" />
            </Array>
          </mxGeometry>
        </mxCell>
        <mxCell id="qeFZkYbgccAt_2fWhlSk-32" value="a,c" style="edgeLabel;html=1;align=center;verticalAlign=middle;resizable=0;points=[];" vertex="1" connectable="0" parent="qeFZkYbgccAt_2fWhlSk-30">
          <mxGeometry x="0.0143" y="-1" relative="1" as="geometry">
            <mxPoint as="offset" />
          </mxGeometry>
        </mxCell>
        <mxCell id="qeFZkYbgccAt_2fWhlSk-38" value="" style="ellipse;whiteSpace=wrap;html=1;aspect=fixed;" vertex="1" parent="1">
          <mxGeometry x="515" y="275" width="90" height="90" as="geometry" />
        </mxCell>
        <mxCell id="qeFZkYbgccAt_2fWhlSk-37" value="" style="ellipse;whiteSpace=wrap;html=1;aspect=fixed;" vertex="1" parent="1">
          <mxGeometry x="515" y="435" width="90" height="90" as="geometry" />
        </mxCell>
        <mxCell id="qeFZkYbgccAt_2fWhlSk-45" style="edgeStyle=orthogonalEdgeStyle;rounded=0;orthogonalLoop=1;jettySize=auto;html=1;exitX=0.262;exitY=0.039;exitDx=0;exitDy=0;exitPerimeter=0;" edge="1" parent="1" source="qeFZkYbgccAt_2fWhlSk-22">
          <mxGeometry relative="1" as="geometry">
            <mxPoint x="580" y="430" as="targetPoint" />
          </mxGeometry>
        </mxCell>
        <mxCell id="qeFZkYbgccAt_2fWhlSk-46" value="b" style="edgeLabel;html=1;align=center;verticalAlign=middle;resizable=0;points=[];" vertex="1" connectable="0" parent="qeFZkYbgccAt_2fWhlSk-45">
          <mxGeometry x="0.2118" relative="1" as="geometry">
            <mxPoint as="offset" />
          </mxGeometry>
        </mxCell>
        <mxCell id="qeFZkYbgccAt_2fWhlSk-22" value="q4" style="ellipse;whiteSpace=wrap;html=1;aspect=fixed;" vertex="1" parent="1">
          <mxGeometry x="520" y="440" width="80" height="80" as="geometry" />
        </mxCell>
        <mxCell id="qeFZkYbgccAt_2fWhlSk-39" style="edgeStyle=orthogonalEdgeStyle;rounded=0;orthogonalLoop=1;jettySize=auto;html=1;" edge="1" parent="1" source="qeFZkYbgccAt_2fWhlSk-21" target="qeFZkYbgccAt_2fWhlSk-17">
          <mxGeometry relative="1" as="geometry">
            <mxPoint x="520" y="260" as="targetPoint" />
            <Array as="points">
              <mxPoint x="560" y="260" />
              <mxPoint x="400" y="260" />
            </Array>
          </mxGeometry>
        </mxCell>
        <mxCell id="qeFZkYbgccAt_2fWhlSk-40" value="b,c" style="edgeLabel;html=1;align=center;verticalAlign=middle;resizable=0;points=[];" vertex="1" connectable="0" parent="qeFZkYbgccAt_2fWhlSk-39">
          <mxGeometry x="0.0143" y="1" relative="1" as="geometry">
            <mxPoint as="offset" />
          </mxGeometry>
        </mxCell>
        <mxCell id="qeFZkYbgccAt_2fWhlSk-43" style="edgeStyle=orthogonalEdgeStyle;rounded=0;orthogonalLoop=1;jettySize=auto;html=1;exitX=0.244;exitY=0.961;exitDx=0;exitDy=0;exitPerimeter=0;" edge="1" parent="1" source="qeFZkYbgccAt_2fWhlSk-21">
          <mxGeometry relative="1" as="geometry">
            <mxPoint x="580" y="370" as="targetPoint" />
          </mxGeometry>
        </mxCell>
        <mxCell id="qeFZkYbgccAt_2fWhlSk-44" value="a" style="edgeLabel;html=1;align=center;verticalAlign=middle;resizable=0;points=[];" vertex="1" connectable="0" parent="qeFZkYbgccAt_2fWhlSk-43">
          <mxGeometry x="0.189" y="-1" relative="1" as="geometry">
            <mxPoint as="offset" />
          </mxGeometry>
        </mxCell>
        <mxCell id="qeFZkYbgccAt_2fWhlSk-21" value="q3" style="ellipse;whiteSpace=wrap;html=1;aspect=fixed;" vertex="1" parent="1">
          <mxGeometry x="520" y="280" width="80" height="80" as="geometry" />
        </mxCell>
        <mxCell id="qeFZkYbgccAt_2fWhlSk-47" value="q5" style="ellipse;whiteSpace=wrap;html=1;aspect=fixed;" vertex="1" parent="1">
          <mxGeometry x="210" y="260" width="60" height="60" as="geometry" />
        </mxCell>
        <mxCell id="qeFZkYbgccAt_2fWhlSk-53" style="edgeStyle=orthogonalEdgeStyle;rounded=0;orthogonalLoop=1;jettySize=auto;html=1;elbow=vertical;exitX=0.978;exitY=0.218;exitDx=0;exitDy=0;exitPerimeter=0;entryX=0.922;entryY=0.845;entryDx=0;entryDy=0;entryPerimeter=0;" edge="1" parent="1" source="qeFZkYbgccAt_2fWhlSk-47" target="qeFZkYbgccAt_2fWhlSk-47">
          <mxGeometry relative="1" as="geometry">
            <mxPoint x="280" y="310" as="targetPoint" />
            <Array as="points">
              <mxPoint x="290" y="273" />
              <mxPoint x="290" y="311" />
            </Array>
          </mxGeometry>
        </mxCell>
        <mxCell id="qeFZkYbgccAt_2fWhlSk-56" value="a,b,c" style="edgeLabel;html=1;align=center;verticalAlign=middle;resizable=0;points=[];" vertex="1" connectable="0" parent="qeFZkYbgccAt_2fWhlSk-53">
          <mxGeometry x="0.0111" y="1" relative="1" as="geometry">
            <mxPoint as="offset" />
          </mxGeometry>
        </mxCell>
      </root>
    </mxGraphModel>
  </diagram>
</mxfile>
